<?xml version="1.0" standalone="no"?>
<!DOCTYPE svg PUBLIC "-//W3C//DTD SVG 20010904//EN"
 "http://www.w3.org/TR/2001/REC-SVG-20010904/DTD/svg10.dtd">
<svg version="1.0" xmlns="http://www.w3.org/2000/svg"
 width="2401.000000pt" height="2404.000000pt" viewBox="0 0 2401.000000 2404.000000"
 preserveAspectRatio="xMidYMid meet">

<g transform="translate(0.000000,2404.000000) scale(0.100000,-0.100000)"
fill="#000000" stroke="none">
<path d="M915 23110 c-355 -18 -722 -49 -882 -76 l-33 -5 0 -825 0 -825 43 5
c167 23 500 51 717 61 69 3 151 8 184 11 76 6 896 6 972 0 33 -3 115 -8 184
-11 506 -23 1157 -103 1704 -211 1551 -304 3033 -897 4431 -1772 663 -415
1322 -915 1906 -1448 217 -197 849 -853 1041 -1079 488 -576 876 -1167 1208
-1840 429 -869 665 -1680 766 -2625 21 -203 30 -697 15 -890 -52 -680 -231
-1226 -529 -1617 -288 -378 -748 -563 -1398 -563 -425 0 -967 66 -1644 201
-236 47 -590 126 -598 134 -3 2 28 40 69 83 630 663 1143 1477 1379 2191 78
234 127 443 162 691 20 145 17 640 -5 800 -66 474 -213 879 -446 1230 -112
170 -175 248 -304 379 -471 477 -1129 776 -1932 878 -197 25 -736 25 -948 0
-860 -102 -1630 -377 -2386 -850 -453 -284 -937 -693 -1114 -942 -66 -93 -141
-253 -161 -342 -44 -197 11 -380 159 -529 153 -153 341 -190 577 -114 116 37
198 85 319 185 292 244 679 502 1047 700 539 291 1102 481 1632 550 176 23
508 31 667 15 733 -72 1258 -478 1420 -1097 27 -103 28 -118 28 -328 -1 -243
-9 -308 -71 -545 -50 -193 -121 -376 -234 -605 -180 -367 -436 -716 -860
-1175 -260 -281 -800 -801 -839 -808 -9 -2 -100 13 -202 32 -740 140 -1455
204 -2159 193 -477 -7 -832 -43 -1170 -118 -621 -137 -1055 -355 -1411 -709
-257 -256 -412 -501 -518 -820 -119 -358 -96 -702 69 -1031 136 -269 413 -551
698 -706 380 -209 942 -275 1537 -182 454 72 1199 312 1743 562 500 231 1164
644 1750 1089 l144 109 211 -50 c1211 -288 2290 -471 3145 -532 205 -15 631
-7 812 15 566 69 998 204 1318 412 616 401 1100 1051 1364 1834 347 1031 341
2371 -16 3795 -100 398 -180 647 -391 1215 -98 263 -178 446 -322 735 -681
1361 -1753 2675 -3070 3764 -1086 897 -2357 1660 -3748 2251 -1296 550 -2757
942 -4045 1084 -215 24 -327 33 -705 57 -215 13 -1068 19 -1280 9z m4300
-14211 c94 -6 174 -15 178 -19 19 -17 -501 -272 -787 -384 -399 -158 -915
-276 -1207 -276 -130 0 -184 18 -219 74 -42 69 -18 138 83 233 158 147 418
259 762 328 304 60 729 76 1190 44z"/>
<path d="M13815 20154 c-16 -2 -79 -9 -140 -15 -455 -44 -721 -169 -855 -403
-92 -162 -92 -433 0 -621 97 -197 291 -327 580 -391 60 -13 126 -16 336 -15
282 2 394 -6 631 -44 1111 -180 2305 -764 3412 -1672 475 -388 1016 -923 1471
-1453 621 -724 1285 -1675 1772 -2540 774 -1374 1415 -3047 1942 -5065 439
-1683 794 -3671 1008 -5635 l33 -305 3 4018 2 4018 -51 157 c-350 1069 -775
2115 -1204 2967 -786 1558 -1763 2921 -2945 4106 -460 461 -779 749 -1230
1109 -377 301 -866 643 -1195 836 -333 195 -844 435 -1240 582 -552 205 -1070
319 -1655 362 -124 9 -604 12 -675 4z"/>
<path d="M7418 5695 l-3 -255 488 0 487 0 0 255 0 255 -485 0 -484 0 -3 -255z"/>
<path d="M15708 4618 c-356 -809 -873 -1983 -1088 -2468 -89 -201 -164 -373
-167 -383 -5 -16 8 -17 184 -17 l189 0 133 313 c73 171 159 372 190 445 l56
132 669 -2 670 -3 147 -355 c82 -195 164 -394 184 -442 l37 -88 189 0 c104 0
189 4 189 9 0 5 -275 649 -611 1432 -336 783 -650 1515 -698 1627 -47 111 -88
202 -91 202 -3 0 -85 -181 -182 -402z m287 -673 c60 -143 124 -296 142 -340
19 -44 70 -168 114 -275 45 -107 96 -231 115 -274 19 -44 34 -83 34 -88 0 -4
-236 -8 -525 -8 -289 0 -525 4 -525 8 0 5 31 80 69 168 38 87 155 361 261 609
195 458 200 469 205 463 1 -2 51 -120 110 -263z"/>
<path d="M3345 4934 c-304 -31 -521 -119 -730 -295 -85 -72 -86 -73 -180 -189
-170 -211 -283 -499 -326 -830 -18 -132 -18 -512 -1 -640 31 -233 83 -413 169
-584 55 -110 82 -152 154 -241 173 -212 388 -357 624 -420 177 -47 430 -46
610 3 108 29 193 59 207 71 4 4 17 175 28 381 11 206 22 405 25 443 3 37 2 67
-2 67 -4 0 -32 -19 -62 -43 -70 -54 -129 -88 -206 -117 -80 -31 -244 -34 -320
-6 -222 80 -345 297 -376 662 -22 254 23 531 111 690 89 158 202 240 366 262
146 20 277 -23 401 -130 l48 -41 3 434 c1 239 0 439 -2 445 -4 11 -84 36 -191
61 -62 14 -279 24 -350 17z"/>
<path d="M4260 3315 l0 -1565 423 2 422 3 0 628 0 627 203 0 202 0 0 -630 0
-630 420 0 420 0 0 1565 0 1565 -420 0 -420 0 -2 -552 -3 -553 -198 0 -198 0
-2 550 -2 550 -422 3 -423 2 0 -1565z"/>
<path d="M7346 4863 c-5 -19 -64 -260 -166 -688 -34 -143 -86 -357 -115 -475
-29 -118 -59 -246 -68 -285 -18 -75 -139 -578 -207 -860 -22 -93 -47 -197 -55
-230 -8 -33 -33 -136 -55 -230 -52 -213 -80 -334 -80 -340 0 -3 195 -5 434 -5
405 0 435 1 440 18 3 9 10 49 16 87 6 39 20 121 31 183 l21 112 282 -2 281 -3
11 -50 c7 -27 22 -116 34 -197 l23 -148 433 0 c360 0 434 2 434 14 0 20 -11
73 -100 491 -80 378 -171 806 -235 1110 -81 384 -117 552 -155 730 -22 105
-61 287 -85 405 -25 118 -53 251 -63 295 l-18 80 -516 3 c-486 2 -517 1 -522
-15z m545 -1132 c23 -232 57 -501 94 -740 13 -91 23 -166 21 -168 -2 -2 -82
-2 -177 -1 l-175 3 43 245 c24 135 48 274 53 310 6 36 17 106 25 155 7 50 26
187 40 305 34 275 37 285 47 180 5 -47 18 -177 29 -289z"/>
<path d="M9290 3315 l0 -1565 420 0 420 0 2 638 3 637 36 -110 c47 -145 419
-1136 431 -1152 8 -10 112 -13 459 -13 263 0 449 4 449 9 0 5 -37 85 -81 178
-45 92 -107 222 -139 288 -32 66 -101 210 -155 320 -53 110 -111 229 -127 265
-17 36 -50 104 -74 152 l-43 86 66 37 c207 114 332 273 389 495 29 115 27 431
-4 553 -56 223 -171 401 -345 536 -91 69 -239 134 -392 170 -146 34 -250 39
-782 40 l-533 1 0 -1565z m1047 835 c73 -25 128 -74 161 -139 23 -48 27 -71
30 -161 3 -76 0 -121 -12 -159 -45 -154 -158 -248 -308 -259 l-68 -5 0 378 0
378 73 -8 c39 -3 95 -15 124 -25z"/>
<path d="M11800 3315 l0 -1565 420 0 420 0 0 1565 0 1565 -420 0 -420 0 0
-1565z"/>
<path d="M13180 3315 l0 -1565 605 0 605 0 0 160 0 160 -430 0 -430 0 0 1405
0 1405 -175 0 -175 0 0 -1565z"/>
<path d="M17640 3315 l0 -1565 175 0 175 0 0 678 0 678 38 37 c21 20 42 37 47
36 6 0 76 -75 158 -167 81 -92 164 -186 185 -208 20 -23 123 -138 227 -255
229 -258 521 -585 619 -693 39 -43 75 -85 79 -92 6 -11 54 -14 247 -14 132 0
240 2 240 6 0 3 -156 177 -347 387 -191 210 -480 528 -642 707 -163 179 -316
348 -342 375 -25 28 -76 84 -113 125 l-67 75 733 727 733 727 -233 1 -233 0
-664 -667 -664 -668 -1 668 0 667 -175 0 -175 0 0 -1565z"/>
<path d="M20180 3315 l0 -1565 810 0 810 0 0 160 0 160 -637 2 -638 3 0 610 0
610 618 3 617 2 0 165 0 165 -617 2 -618 3 0 460 0 460 638 3 637 2 0 160 0
160 -810 0 -810 0 0 -1565z"/>
</g>
</svg>
